<?xml version="1.0" encoding="UTF-8" standalone="no"?>
<svg
   version="1.1"
   viewBox="0 0 2048 788"
   width="361"
   height="139"
   id="svg88"
   sodipodi:docname="2oHGp8cbIptNTtCcWVM5htpdNPL.svg"
   xmlns:inkscape="http://www.inkscape.org/namespaces/inkscape"
   xmlns:sodipodi="http://sodipodi.sourceforge.net/DTD/sodipodi-0.dtd"
   xmlns="http://www.w3.org/2000/svg"
   xmlns:svg="http://www.w3.org/2000/svg">
  <defs
     id="defs88" />
  <sodipodi:namedview
     id="namedview88"
     pagecolor="#ffffff"
     bordercolor="#999999"
     borderopacity="1"
     inkscape:showpageshadow="2"
     inkscape:pageopacity="0"
     inkscape:pagecheckerboard="0"
     inkscape:deskcolor="#d1d1d1"
     showgrid="false" />
  <path
     d="m 374,2 6,1 35,18 22,12 26,14 27,14 22,12 23,12 19,10 53,28 26,14 22,12 27,14 19,10 26,14 19,10 27,14 22,12 23,12 16,9 31,16 23,13 27,14 1,2 -19,1 H 794 l 1,15 2,71 1,54 2,30 1,28 v 37 l -3,6 -19,14 -16,11 -16,12 -17,12 -18,13 -14,10 -13,10 -12,8 -10,8 -18,13 -13,9 -12,9 -3,1 -2,-26 -1,-23 -2,-81 -2,-53 -2,-85 -3,-73 -1,-26 -9,-8 -18,-13 -13,-9 -15,-11 -20,-14 -18,-13 -17,-12 -11,-8 -18,-13 -12,-9 -16,-11 -15,-11 -16,-11 -16,-12 -15,-11 -11,-8 -12,-8 -5,-3 h -6 l -3,3 -5,3 -6,4 -5,2 -16,11 -19,12 -16,10 -9,6 -11,7 -16,10 -15,9 -14,10 -10,6 -14,9 -15,9 -15,10 -18,11 -15,10 -34,22 -14,8 -13,9 -18,11 -19,12 -14,8 -6,3 -1,-7 v -83 l 7,-4 15,-10 45,-27 16,-10 12,-8 10,-6 16,-10 15,-9 26,-16 16,-10 21,-13 17,-11 10,-6 22,-14 21,-13 18,-11 19,-12 28,-17 17,-11 13,-8 7,-5 z"
     fill="#e20f1b"
     id="path2" />
  <path
     d="m 321,246 h 55 l 19,3 24,8 18,8 16,10 16,13 8,8 10,13 8,13 13,27 6,16 v 4 l -9,3 -24,6 -39,10 h -3 l -4,-15 -6,-14 -9,-13 -7,-8 -10,-8 -17,-9 -15,-4 -8,-1 h -22 l -20,3 -12,4 -16,9 -10,8 -10,9 -11,15 -10,19 -7,21 -4,24 -1,8 v 33 l 3,23 5,21 8,19 7,13 9,12 7,8 13,10 12,7 15,6 12,3 7,1 h 25 l 17,-3 13,-5 16,-10 10,-9 8,-9 12,-18 7,-15 4,-9 9,3 28,11 30,12 5,3 -1,5 -8,16 -9,16 -12,17 -11,13 -8,8 -11,9 -14,10 -18,10 -25,10 -16,4 -18,3 -10,1 h -23 l -21,-2 -26,-5 -20,-7 -19,-9 -24,-16 -16,-15 -10,-11 -11,-15 -10,-17 -8,-17 -8,-24 -6,-27 -2,-14 -1,-14 v -37 l 2,-20 4,-22 6,-20 8,-20 8,-16 7,-11 9,-12 12,-13 9,-10 11,-9 13,-9 14,-8 15,-7 25,-8 z"
     fill="#1b181b"
     id="path3" />
  <path
     d="m 1348,462 h 13 l 1,45 16,-8 5,-1 h 9 l 13,4 10,7 6,7 7,14 3,14 -1,16 -3,11 -6,12 -5,6 -13,8 -11,3 h -11 l -11,-4 -4,-3 -4,-1 -1,4 -2,1 h -21 V 463 Z"
     fill="#1b191b"
     id="path4" />
  <path
     d="m 864,303 h 24 l 13,4 13,9 7,7 6,10 4,11 v 3 l -14,5 -9,2 h -6 l -5,-12 -6,-7 -7,-3 -5,-1 h -9 l -11,3 -8,6 -6,9 -4,12 -1,7 v 13 l 3,14 6,12 8,7 7,3 5,1 h 11 l 10,-3 9,-8 8,-14 13,4 12,5 1,6 -6,12 -8,10 -13,10 -10,5 -14,3 h -19 l -16,-4 -12,-7 -10,-9 -8,-10 -6,-16 -3,-16 v -26 l 4,-16 7,-14 8,-10 10,-8 13,-6 z"
     fill="#e20f1b"
     id="path5" />
  <path
     d="m 1106,498 h 9 l 10,3 8,5 3,4 5,-1 6,-5 8,-4 9,-2 h 9 l 12,3 6,4 7,8 3,8 1,8 v 68 h -24 l -1,-66 -3,-5 -3,-3 -3,-1 h -10 l -9,6 -4,5 -3,10 -1,55 -23,-1 -1,-64 -3,-7 -7,-3 h -12 l -7,6 -5,11 -1,4 -1,53 h -23 v -94 l 1,-1 h 13 l 8,-1 1,2 v 4 l 7,-1 8,-5 z"
     fill="#1b191b"
     id="path6" />
  <path
     d="m 1263,498 h 11 l 16,4 10,6 9,8 8,16 2,11 v 14 l -3,14 -9,14 -9,8 -11,5 -9,2 h -17 l -13,-4 -10,-6 -8,-8 -6,-11 -3,-10 -1,-14 3,-17 7,-14 8,-8 11,-6 8,-3 z"
     fill="#1b191b"
     id="path7" />
  <path
     d="m 978,345 h 23 l 12,4 10,6 8,9 7,15 2,11 v 11 l -3,14 -6,11 -8,9 -12,7 -10,3 -14,1 -11,-2 -10,-4 -11,-8 -9,-13 -4,-13 v -21 l 3,-12 6,-11 5,-6 10,-7 z"
     fill="#1b191b"
     id="path8" />
  <path
     d="m 1624,498 h 16 l 14,3 10,5 7,8 2,4 1,6 1,74 -24,-1 -1,-6 -15,7 -3,1 h -21 l -11,-4 -8,-7 -5,-10 -1,-4 v -10 l 3,-9 4,-6 8,-6 13,-5 34,-6 -1,-10 -4,-3 -12,-1 -12,2 -4,10 -7,1 -13,-1 -4,-2 -1,-4 4,-10 5,-6 9,-6 9,-3 z"
     fill="#1b191b"
     id="path9" />
  <path
     d="m 1304,344 h 18 l 12,2 10,4 5,5 4,8 1,4 1,68 2,7 -1,1 h -24 l -2,-5 -5,1 -11,5 -3,1 h -18 l -12,-5 -9,-7 -4,-8 -1,-5 v -10 l 3,-11 8,-8 16,-7 36,-8 -1,-6 -5,-5 -6,-2 h -10 l -8,5 h -2 l -4,8 -3,1 -20,-2 1,-8 5,-10 8,-7 8,-4 z"
     fill="#1b191b"
     id="path10" />
  <path
     d="m 1844,498 h 16 l 16,4 11,6 4,6 1,4 1,65 2,10 1,4 -1,1 -24,-1 -1,-4 -6,1 -10,4 -5,1 h -20 l -12,-6 -8,-9 -3,-8 v -13 l 4,-10 8,-8 13,-6 14,-3 19,-3 4,-1 -1,-9 -2,-3 -9,-2 -12,1 -5,2 -5,9 -6,1 -17,-2 1,-9 4,-8 7,-7 11,-5 z"
     fill="#1b191b"
     id="path11" />
  <path
     d="m 1104,344 h 14 l 11,4 9,8 3,8 1,4 v 74 l -1,1 h -21 l -1,-61 -3,-7 -7,-6 -10,-1 -9,3 -2,4 -4,10 -2,15 -1,41 -1,2 h -22 v -96 l 21,-1 3,6 v 2 l 11,-6 6,-3 z"
     fill="#1b191b"
     id="path12" />
  <path
     d="m 998,498 h 8 l 12,3 8,6 6,9 2,8 v 73 h -23 v -55 l -2,-11 -4,-5 -6,-3 h -9 l -7,3 -6,8 -2,6 -1,20 -1,37 h -24 l 1,-95 h 13 l 10,-1 v 6 h 4 l 15,-8 z"
     fill="#1b191b"
     id="path13" />
  <path
     d="m 895,459 h 17 l 12,1 1,1 v 73 l -1,64 h -29 z"
     fill="#e20f1b"
     id="path14" />
  <path
     d="m 1195,308 h 18 l 1,20 -1,1 -14,1 -4,1 -1,3 -1,12 20,1 1,15 -7,2 -13,1 -1,67 -1,11 h -22 l -1,-78 -14,-2 v -16 l 14,-1 v -16 l 1,-10 6,-7 5,-4 z"
     fill="#1b191b"
     id="path15" />
  <path
     d="m 314,392 h 60 v 54 l -1,9 -30,1 h -24 l -6,-1 v -60 z"
     fill="#e20f1b"
     id="path16" />
  <path
     d="m 313,471 h 61 v 33 l -1,29 -27,1 h -31 l -2,-1 z"
     fill="#e20f1b"
     id="path17" />
  <path
     d="m 1500,462 h 20 l 1,1 v 134 h -24 V 469 l 1,-6 z"
     fill="#1b191b"
     id="path18" />
  <path
     d="m 1426,344 5,1 v 15 l -1,8 -16,5 -6,4 -5,10 -1,4 -1,51 -1,1 h -22 v -96 l 21,-1 1,1 1,7 5,-1 8,-5 z"
     fill="#1b191b"
     id="path19" />
  <path
     d="m 1739,500 h 11 l 1,1 v 18 l -2,4 -17,5 -6,5 -5,11 -2,53 h -21 l -1,-95 4,-1 17,1 3,8 4,-2 4,-4 z"
     fill="#1b191b"
     id="path20" />
  <path
     d="m 1263,520 h 12 l 8,3 5,5 5,8 2,7 v 16 l -5,10 -8,7 -7,2 h -11 l -8,-3 -8,-9 -3,-8 -1,-11 2,-11 5,-8 7,-6 z"
     fill="#fdfefd"
     id="path21" />
  <path
     d="m 988,365 9,1 8,4 7,8 3,8 v 19 l -3,7 -7,8 -8,4 h -12 l -9,-4 -7,-8 -3,-8 v -18 l 4,-10 6,-7 7,-3 z"
     fill="#fdfefd"
     id="path22" />
  <path
     d="m 1227,347 h 22 l 1,1 v 95 h -23 z"
     fill="#1b191b"
     id="path23" />
  <path
     d="m 1765,502 h 20 l 3,1 v 94 h -23 z"
     fill="#1b191b"
     id="path24" />
  <path
     d="m 1379,520 h 8 l 10,4 6,7 3,8 v 20 l -5,10 -5,5 -5,3 -10,1 -9,-3 -5,-4 -4,-6 -3,-11 v -12 l 4,-11 7,-8 z"
     fill="#fdfefd"
     id="path25" />
  <path
     d="m 1450,504 h 23 v 40 l -1,54 -22,-1 -1,-1 z"
     fill="#1b191b"
     id="path26" />
  <path
     d="m 1546,502 h 16 l 6,1 v 94 h -23 v -94 z"
     fill="#1b191b"
     id="path27" />
  <path
     d="m 1457,427 11,2 9,7 4,7 v 10 l -6,10 -9,6 -4,1 h -11 l -10,-4 -7,-6 -3,-6 v -10 l 5,-9 8,-6 z"
     fill="#e20f1b"
     id="path28" />
  <path
     d="m 1006,627 13,1 6,2 1,25 1,20 3,6 v 2 l -16,-1 5,-5 1,-13 -17,-1 -6,-4 -4,-5 -1,-3 v -10 l 5,-8 6,-5 z"
     fill="#1b191b"
     id="path29" />
  <path
     d="m 1175,606 8,1 v 42 l 2,11 1,4 h -7 l -3,-3 -4,1 -2,1 h -10 l -5,-3 -4,-5 -1,-5 v -9 l 3,-8 5,-4 3,-1 h 11 l 4,1 -1,-17 -2,-5 z"
     fill="#1b191b"
     id="path30" />
  <path
     d="m 1685,628 h 27 l 6,3 5,-3 h 13 l 4,4 1,5 1,27 h -10 l 1,-5 v -24 l -4,-4 -7,1 -3,2 -1,5 v 20 l 1,5 h -10 l 1,-18 v -10 l -4,-4 h -7 l -3,4 -2,12 v 9 l 4,5 v 2 l -10,1 -2,-1 1,-14 v -15 z"
     fill="#1b191b"
     id="path31" />
  <path
     d="m 1873,627 9,2 16,-1 5,2 6,-1 4,-2 h 7 l 5,3 3,6 1,28 h -10 l 1,-3 v -27 l -3,-3 -5,-1 -5,4 -2,5 v 21 l 2,4 -3,1 h -7 l -1,-2 1,-7 1,-20 -4,-4 h -7 l -3,3 -3,17 1,7 3,3 v 2 l -9,1 -3,-1 1,-12 v -18 l -2,-6 z"
     fill="#1b191b"
     id="path32" />
  <path
     d="m 1323,397 h 7 l 1,1 v 12 l -3,7 -10,6 -7,2 h -9 l -6,-3 -4,-5 -1,-6 5,-6 11,-4 z"
     fill="#fdfefd"
     id="path33" />
  <path
     d="m 1864,552 h 6 v 11 l -2,8 -5,4 -8,3 -4,1 h -12 l -6,-4 -2,-3 v -8 l 5,-5 14,-4 z"
     fill="#fdfefd"
     id="path34" />
  <path
     d="m 1643,552 h 6 l 1,5 -2,13 -2,4 -11,4 -5,1 h -10 l -6,-3 -3,-4 v -8 l 4,-4 11,-4 z"
     fill="#fdfefd"
     id="path35" />
  <path
     d="m 749,607 16,3 3,4 1,8 -3,-1 -6,-7 -5,-3 h -7 l -5,4 -2,7 4,4 10,5 9,3 6,7 1,3 v 9 l -6,8 -7,3 h -11 l -11,-3 -3,-5 -1,-9 h 4 l 4,10 7,4 8,1 5,-3 4,-5 v -7 l -5,-5 -18,-8 -7,-7 v -6 l 5,-9 5,-4 z"
     fill="#1b191b"
     id="path36" />
  <path
     d="m 1255,606 10,1 v 49 l 3,8 h -7 l -3,-1 -1,-5 v -23 l -4,-2 h -10 l -3,4 -1,3 v 11 l 3,7 2,1 12,1 v 2 l -6,2 -9,-1 -8,-7 -2,-4 v -9 l 3,-7 5,-6 2,-1 h 14 l 4,1 -1,-20 h -2 z"
     fill="#1b191b"
     id="path37" />
  <path
     d="m 1200,628 h 18 l 2,3 1,22 2,6 1,4 -5,1 h -18 l -4,-2 -2,-6 1,-7 13,-7 4,-1 v -9 l -1,-2 h -6 l -6,9 -3,-1 v -7 z"
     fill="#1b191b"
     id="path38" />
  <path
     d="m 915,628 h 19 l 1,1 2,28 2,6 h -14 l -3,1 h -7 l -4,-2 -1,-4 v -7 l 4,-5 5,-2 10,-2 v -9 l -3,-3 -6,1 -2,4 -5,2 v -8 z"
     fill="#1b191b"
     id="path39" />
  <path
     d="m 1656,630 7,1 6,7 2,5 -1,8 -6,9 -3,2 -6,-1 -6,-7 -2,-5 v -9 l 3,-6 3,-3 z"
     fill="#fdfefd"
     id="path40" />
  <path
     d="m 1557,630 6,1 5,4 2,4 v 12 l -3,6 -5,4 -5,1 -8,-7 -2,-4 v -11 l 4,-6 3,-3 z"
     fill="#fdfefd"
     id="path41" />
  <path
     d="m 2011,629 5,2 5,5 3,7 -1,9 -6,8 -4,2 -5,-1 -6,-7 -2,-5 v -7 l 4,-8 z"
     fill="#fdfefd"
     id="path42" />
  <path
     d="m 1765,463 h 23 l 1,5 -1,19 -1,1 -22,-1 z"
     fill="#1b191b"
     id="path43" />
  <path
     d="m 1844,630 7,2 5,6 2,8 -3,9 -5,6 -6,1 -6,-5 -4,-8 v -9 l 5,-8 z"
     fill="#fdfefd"
     id="path44" />
  <path
     d="m 1008,629 7,1 3,4 2,10 v 10 l -2,5 -2,2 h -8 l -5,-3 -4,-7 v -11 l 6,-9 z"
     fill="#fdfefd"
     id="path45" />
  <path
     d="m 1553,627 h 12 l 8,5 4,7 v 12 l -5,8 -6,4 -11,2 -8,-4 -6,-8 -1,-4 v -7 l 4,-8 5,-5 z m 4,3 -5,3 -4,5 -1,2 v 11 l 4,6 6,5 6,-2 5,-4 2,-5 v -12 l -4,-6 -6,-3 z"
     fill="#1b191b"
     id="path46" />
  <path
     d="m 1546,463 h 12 l 10,1 v 24 h -15 l -7,-1 z"
     fill="#1b191b"
     id="path47" />
  <path
     d="m 1317,627 h 6 l 6,3 13,-2 h 6 l 2,3 2,28 1,5 h -10 l 1,-5 v -25 l -7,-1 -8,3 -2,5 v 16 l 1,7 -9,1 1,-18 v -14 l -3,-4 z"
     fill="#1b191b"
     id="path48" />
  <path
     d="m 2008,626 h 8 l 8,5 5,7 1,3 v 9 l -5,9 -7,4 -10,2 -7,-3 -5,-6 -2,-5 v -10 l 4,-8 6,-5 z m 3,3 -7,5 -4,8 v 7 l 4,8 6,5 5,-1 5,-4 4,-8 -1,-9 -4,-7 -7,-4 z"
     fill="#1b191b"
     id="path49" />
  <path
     d="m 1653,627 h 10 l 8,3 5,8 1,9 -4,10 -7,6 -7,2 -8,-1 -7,-6 -4,-11 2,-10 4,-6 4,-3 z m 3,3 -5,3 -3,5 -1,2 v 9 l 4,8 6,5 6,-1 6,-8 2,-5 -1,-8 -4,-6 -5,-4 z"
     fill="#1b191b"
     id="path50" />
  <path
     d="m 1227,309 h 22 v 23 h -22 l -1,-4 v -18 z"
     fill="#1b191b"
     id="path51" />
  <path
     d="m 1840,627 h 9 l 8,3 5,6 2,5 -1,9 -3,7 -7,6 -7,2 -7,-1 -6,-4 -5,-9 -1,-7 4,-10 4,-5 z m 4,3 -5,2 -5,8 v 9 l 4,8 6,5 6,-1 6,-7 2,-9 -3,-9 -6,-5 z"
     fill="#1b191b"
     id="path52" />
  <path
     d="m 948,628 10,1 h 21 l 2,1 2,35 h -7 l -1,-3 v -28 l -2,-1 h -11 l -3,5 -1,7 v 12 l 2,6 -1,1 h -11 l 2,-2 1,-4 v -26 l -3,-1 z"
     fill="#1b191b"
     id="path53" />
  <path
     d="m 1366,627 6,1 1,24 2,6 8,1 4,-2 2,-18 -2,-11 6,-1 2,2 1,27 2,8 -7,-1 -4,-3 -9,4 h -8 l -3,-7 -1,-5 -1,-21 -1,-3 z"
     fill="#1b191b"
     id="path54" />
  <path
     d="m 1164,630 7,1 4,2 1,3 v 18 l -2,5 -1,1 h -9 l -5,-4 -3,-7 v -7 l 3,-7 z"
     fill="#fdfefd"
     id="path55" />
  <path
     d="m 1420,626 6,1 7,4 2,5 v 7 l -3,2 h -11 l -2,-3 11,-1 -2,-9 -3,-2 h -5 l -3,1 -3,10 v 10 l 4,6 3,2 h 8 l 6,-2 -1,4 -7,3 -8,1 -6,-3 -6,-7 -1,-3 v -11 l 5,-10 6,-4 z"
     fill="#1b191b"
     id="path56" />
  <path
     d="m 1752,627 7,1 2,2 v 31 h 2 v 2 h -3 l 1,16 4,2 v 3 l -10,1 -9,-2 3,-2 4,-4 v -43 z"
     fill="#1b191b"
     id="path57" />
  <path
     d="m 1617,627 10,1 5,3 2,3 v 5 l -5,-2 -7,-6 -5,1 -4,5 -1,3 v 8 l 4,9 5,3 7,-2 6,-5 -1,5 -6,5 -9,2 -8,-4 -4,-5 -2,-5 v -9 l 4,-10 6,-4 z"
     fill="#1b191b"
     id="path58" />
  <path
     d="m 1104,607 h 11 l 1,51 3,6 h -15 l 4,-6 v -43 l -4,-5 z"
     fill="#1b191b"
     id="path59" />
  <path
     d="m 1970,626 9,1 5,3 1,3 v 7 l -3,-4 -4,-6 -4,-2 -4,1 -1,1 -1,8 6,2 10,5 2,4 -1,9 -5,5 -5,2 -8,-1 -6,-4 -2,-8 4,2 8,8 6,-1 3,-1 -1,-8 -14,-8 -2,-3 v -7 l 3,-5 z"
     fill="#1b191b"
     id="path60" />
  <path
     d="m 1488,618 3,1 -1,11 3,-1 h 7 l -2,3 -9,-1 1,20 2,7 10,3 -4,3 h -10 l -3,-4 -2,-11 -1,-16 -4,-2 1,-3 h 2 v -2 l 4,-4 z"
     fill="#1b191b"
     id="path61" />
  <path
     d="m 853,617 3,1 v 10 h 12 l -3,4 -9,-1 1,26 9,3 2,2 -1,1 h -12 l -4,-5 -1,-2 -1,-24 -3,-3 4,-5 z"
     fill="#1b191b"
     id="path62" />
  <path
     d="m 1452,627 h 10 l 5,2 1,1 v 8 l -4,-5 -3,-3 -8,-1 v 9 l 8,4 7,4 1,2 v 7 l -3,6 -4,2 -3,-1 3,-4 -1,-7 -13,-7 -2,-3 1,-9 z"
     fill="#1b191b"
     id="path63" />
  <path
     d="m 1795,627 h 7 l 3,3 1,27 2,7 -1,1 h -7 l -3,-1 v -31 z"
     fill="#1b191b"
     id="path64" />
  <path
     d="m 1510,627 6,1 3,6 v 20 l 3,10 h -9 l -3,-3 v -28 l -4,-5 z"
     fill="#1b191b"
     id="path65" />
  <path
     d="m 1766,629 h 15 l 6,10 v 13 l -4,7 -5,4 h -13 l 2,-2 10,-4 3,-4 v -11 l -3,-7 -5,-2 h -10 l 1,-3 z"
     fill="#1b191b"
     id="path66" />
  <path
     d="m 1040,627 6,1 1,21 2,9 8,3 -2,2 -3,1 h -7 l -2,-1 -3,-9 -1,-23 -1,-3 z"
     fill="#1b191b"
     id="path67" />
  <path
     d="m 1130,627 h 9 l 1,31 1,6 h -10 l 1,-15 v -14 z"
     fill="#1b191b"
     id="path68" />
  <path
     d="m 1063,627 6,1 1,3 1,27 1,6 h -6 l -1,-4 -5,-1 3,-9 v -16 l -2,-6 z"
     fill="#1b191b"
     id="path69" />
  <path
     d="m 1083,628 h 9 l 1,36 h -10 l 2,-7 v -23 z"
     fill="#1b191b"
     id="path70" />
  <path
     d="m 878,627 6,1 2,3 -1,12 v 14 l 2,7 h -9 l -1,-4 1,-4 v -19 l -2,-5 -2,-4 z"
     fill="#1b191b"
     id="path71" />
  <path
     d="m 783,626 4,1 1,1 1,23 2,7 6,3 -1,2 h -10 l -3,-4 -1,-3 -1,-28 z"
     fill="#1b191b"
     id="path72" />
  <path
     d="m 804,627 h 6 l 1,2 1,21 2,14 -9,-1 -1,-5 z"
     fill="#1b191b"
     id="path73" />
  <path
     d="m 1942,627 h 6 l 1,4 v 20 l 2,9 v 4 h -9 v -29 l -1,-7 z"
     fill="#1b191b"
     id="path74" />
  <path
     d="m 2039,609 h 9 v 12 h -4 l 1,5 -2,23 -2,1 -2,-20 -1,-20 z"
     fill="#1b191b"
     id="path75" />
  <path
     d="m 719,642 h 2 l 4,35 v 5 l -3,2 -5,-1 1,-29 z"
     fill="#1b191b"
     id="path76" />
  <path
     d="m 1212,643 h 2 l 1,3 v 13 l -3,3 -7,-1 -3,-4 1,-6 6,-7 z"
     fill="#fdfefd"
     id="path77" />
  <path
     d="m 926,644 3,1 1,4 v 10 l -5,2 -9,-2 -2,-4 4,-5 z"
     fill="#fdfefd"
     id="path78" />
  <path
     d="m 1279,654 5,2 3,2 -1,7 -6,12 h -3 l 1,-5 1,-2 v -8 l -2,-5 z"
     fill="#1b191b"
     id="path79" />
  <path
     d="m 1526,628 9,1 1,5 -1,1 -10,-1 -3,-3 z"
     fill="#1b191b"
     id="path80" />
  <path
     d="m 1444,652 h 2 l 7,9 6,2 v 1 h -10 l -5,-3 z"
     fill="#1b191b"
     id="path81" />
  <path
     d="m 1813,628 h 6 l 3,3 -1,5 -7,-1 -3,-3 v -3 z"
     fill="#1b191b"
     id="path82" />
  <path
     d="m 895,628 7,1 v 6 l -3,1 -8,-3 1,-4 z"
     fill="#1b191b"
     id="path83" />
  <path
     d="m 2038,658 h 10 v 6 h -8 l -2,-2 z"
     fill="#1b191b"
     id="path84" />
  <path
     d="m 1131,607 h 6 l 2,4 -3,3 -5,-1 -1,-5 z"
     fill="#1b191b"
     id="path85" />
  <path
     d="m 1085,606 5,1 v 8 h -3 l -3,-3 v -5 z"
     fill="#1b191b"
     id="path86" />
  <path
     d="m 1941,607 h 5 l 1,1 v 6 l -4,1 -3,-4 z"
     fill="#1b191b"
     id="path87" />
  <path
     d="m 719,628 h 5 l 1,4 -3,3 h -3 l -2,-5 z"
     fill="#1b191b"
     id="path88" />
</svg>
